<?xml version="1.0" standalone="no"?>
<!DOCTYPE svg PUBLIC "-//W3C//DTD SVG 20010904//EN"
 "http://www.w3.org/TR/2001/REC-SVG-20010904/DTD/svg10.dtd">
<svg version="1.0" xmlns="http://www.w3.org/2000/svg"
 width="86.000000pt" height="41.000000pt" viewBox="0 0 86.000000 41.000000"
 preserveAspectRatio="xMidYMid meet">

<g transform="translate(0.000000,41.000000) scale(0.100000,-0.100000)"
fill="#000000" stroke="none">
<path d="M66 348 c-29 -29 -51 -52 -48 -51 2 0 17 -3 34 -8 25 -7 36 -4 64 18
20 15 52 28 79 31 25 2 43 7 40 10 -3 3 2 16 10 29 l15 23 -71 0 -71 0 -52
-52z"/>
<path d="M310 370 c0 -5 5 -10 10 -10 6 0 10 5 10 10 0 6 -4 10 -10 10 -5 0
-10 -4 -10 -10z"/>
<path d="M130 204 c-24 -63 5 -135 65 -160 40 -16 69 -18 60 -4 -3 6 -14 10
-24 10 -23 0 -80 56 -87 86 -4 13 -4 40 -2 59 5 42 1 44 -12 9z"/>
<path d="M204 185 c-9 -14 -13 -32 -9 -45 15 -47 83 -49 104 -3 27 60 -59 103
-95 48z m74 -26 c3 -28 -16 -43 -42 -33 -38 14 -22 68 18 62 14 -2 22 -12 24
-29z"/>
<path d="M330 160 c0 -27 5 -50 10 -50 6 0 10 7 10 15 0 8 9 15 20 15 10 0 23
8 29 17 15 27 -5 53 -39 53 -29 0 -30 -1 -30 -50z m50 15 c0 -8 -7 -15 -15
-15 -8 0 -15 7 -15 15 0 8 7 15 15 15 8 0 15 -7 15 -15z"/>
<path d="M430 161 c0 -28 5 -51 10 -51 6 0 10 7 10 15 0 8 4 15 9 15 5 0 11
-7 15 -15 11 -30 23 -14 22 33 -1 46 -2 47 -33 50 l-33 3 0 -50z m50 14 c0 -8
-7 -15 -15 -15 -8 0 -15 7 -15 15 0 8 7 15 15 15 8 0 15 -7 15 -15z"/>
<path d="M530 160 l0 -50 33 1 c23 1 26 3 10 6 -28 5 -30 33 -3 33 11 0 20 5
20 10 0 6 -9 10 -20 10 -11 0 -20 5 -20 10 0 6 9 10 20 10 11 0 20 5 20 10 0
6 -13 10 -30 10 -29 0 -30 -1 -30 -50z"/>
<path d="M627 163 c-18 -47 -16 -66 5 -45 15 15 48 16 48 2 0 -5 7 -10 14 -10
12 0 11 9 -6 50 -11 28 -26 50 -32 50 -7 0 -19 -21 -29 -47z m43 -9 c0 -8 -7
-14 -15 -14 -17 0 -18 2 -9 24 7 18 24 12 24 -10z"/>
<path d="M736 198 c-3 -7 -7 -30 -10 -51 -6 -46 16 -47 24 -1 l5 29 14 -32 c7
-18 16 -33 20 -33 4 0 13 15 20 33 l14 32 6 -29 c3 -16 11 -31 17 -33 12 -4 3
81 -10 95 -9 8 -36 -26 -36 -45 0 -23 -15 -14 -27 17 -12 31 -31 40 -37 18z"/>
</g>
</svg>
